%TF.GenerationSoftware,KiCad,Pcbnew,9.0.2*%
%TF.CreationDate,2026-01-13T23:33:40-05:00*%
%TF.ProjectId,ESPmoduleBoard,4553506d-6f64-4756-9c65-426f6172642e,rev?*%
%TF.SameCoordinates,Original*%
%TF.FileFunction,Soldermask,Top*%
%TF.FilePolarity,Negative*%
%FSLAX46Y46*%
G04 Gerber Fmt 4.6, Leading zero omitted, Abs format (unit mm)*
G04 Created by KiCad (PCBNEW 9.0.2) date 2026-01-13 23:33:40*
%MOMM*%
%LPD*%
G01*
G04 APERTURE LIST*
G04 Aperture macros list*
%AMRoundRect*
0 Rectangle with rounded corners*
0 $1 Rounding radius*
0 $2 $3 $4 $5 $6 $7 $8 $9 X,Y pos of 4 corners*
0 Add a 4 corners polygon primitive as box body*
4,1,4,$2,$3,$4,$5,$6,$7,$8,$9,$2,$3,0*
0 Add four circle primitives for the rounded corners*
1,1,$1+$1,$2,$3*
1,1,$1+$1,$4,$5*
1,1,$1+$1,$6,$7*
1,1,$1+$1,$8,$9*
0 Add four rect primitives between the rounded corners*
20,1,$1+$1,$2,$3,$4,$5,0*
20,1,$1+$1,$4,$5,$6,$7,0*
20,1,$1+$1,$6,$7,$8,$9,0*
20,1,$1+$1,$8,$9,$2,$3,0*%
G04 Aperture macros list end*
%ADD10RoundRect,0.100000X-0.130000X-0.100000X0.130000X-0.100000X0.130000X0.100000X-0.130000X0.100000X0*%
%ADD11R,0.900000X1.700000*%
%ADD12C,0.800000*%
%ADD13RoundRect,0.100000X0.100000X-0.130000X0.100000X0.130000X-0.100000X0.130000X-0.100000X-0.130000X0*%
%ADD14O,2.000000X1.700000*%
%ADD15RoundRect,0.250000X0.750000X-0.600000X0.750000X0.600000X-0.750000X0.600000X-0.750000X-0.600000X0*%
%ADD16RoundRect,0.140000X0.170000X-0.140000X0.170000X0.140000X-0.170000X0.140000X-0.170000X-0.140000X0*%
%ADD17RoundRect,0.250000X-0.250000X-0.475000X0.250000X-0.475000X0.250000X0.475000X-0.250000X0.475000X0*%
%ADD18RoundRect,0.135000X0.135000X0.185000X-0.135000X0.185000X-0.135000X-0.185000X0.135000X-0.185000X0*%
%ADD19R,1.500000X0.900000*%
%ADD20R,0.900000X1.500000*%
%ADD21C,0.600000*%
%ADD22R,3.900000X3.900000*%
%ADD23RoundRect,0.250000X0.450000X-0.325000X0.450000X0.325000X-0.450000X0.325000X-0.450000X-0.325000X0*%
%ADD24RoundRect,0.140000X-0.170000X0.140000X-0.170000X-0.140000X0.170000X-0.140000X0.170000X0.140000X0*%
%ADD25RoundRect,0.250000X0.475000X-0.250000X0.475000X0.250000X-0.475000X0.250000X-0.475000X-0.250000X0*%
%ADD26RoundRect,0.375000X-0.375000X0.625000X-0.375000X-0.625000X0.375000X-0.625000X0.375000X0.625000X0*%
%ADD27RoundRect,0.500000X-1.400000X0.500000X-1.400000X-0.500000X1.400000X-0.500000X1.400000X0.500000X0*%
%ADD28O,1.200000X0.399999*%
%ADD29RoundRect,0.218750X-0.256250X0.218750X-0.256250X-0.218750X0.256250X-0.218750X0.256250X0.218750X0*%
%ADD30RoundRect,0.135000X0.185000X-0.135000X0.185000X0.135000X-0.185000X0.135000X-0.185000X-0.135000X0*%
%ADD31R,1.700000X2.000000*%
%ADD32R,2.000000X0.500000*%
%ADD33C,1.000000*%
%ADD34RoundRect,0.125000X0.137500X-0.125000X0.137500X0.125000X-0.137500X0.125000X-0.137500X-0.125000X0*%
%ADD35RoundRect,0.100000X0.130000X0.100000X-0.130000X0.100000X-0.130000X-0.100000X0.130000X-0.100000X0*%
%ADD36RoundRect,0.135000X-0.185000X0.135000X-0.185000X-0.135000X0.185000X-0.135000X0.185000X0.135000X0*%
G04 APERTURE END LIST*
D10*
%TO.C,R9*%
X199825000Y-81480000D03*
X199185000Y-81480000D03*
%TD*%
D11*
%TO.C,SW1*%
X206850000Y-105250000D03*
X210250000Y-105250000D03*
D12*
X208550000Y-105250000D03*
%TD*%
D13*
%TO.C,C7*%
X194750000Y-85180000D03*
X194750000Y-85820000D03*
%TD*%
D14*
%TO.C,J2*%
X199750000Y-91000000D03*
D15*
X199750000Y-93500000D03*
%TD*%
D16*
%TO.C,C4*%
X205750000Y-82040000D03*
X205750000Y-83000000D03*
%TD*%
D17*
%TO.C,C1*%
X197320000Y-111520000D03*
X195420000Y-111520000D03*
%TD*%
D18*
%TO.C,R1*%
X200800000Y-111020000D03*
X201820000Y-111020000D03*
%TD*%
D13*
%TO.C,C8*%
X194750000Y-83995000D03*
X194750000Y-83355000D03*
%TD*%
D19*
%TO.C,U2*%
X207350000Y-81880000D03*
X207350000Y-83150000D03*
X207350000Y-84420000D03*
X207350000Y-85690000D03*
X207350000Y-86960000D03*
X207350000Y-88230000D03*
X207350000Y-89500000D03*
X207350000Y-90770000D03*
X207350000Y-92040000D03*
X207350000Y-93310000D03*
X207350000Y-94580000D03*
X207350000Y-95850000D03*
X207350000Y-97120000D03*
X207350000Y-98390000D03*
D20*
X209115000Y-99640000D03*
X210385000Y-99640000D03*
X211655000Y-99640000D03*
X212925000Y-99640000D03*
X214195000Y-99640000D03*
X215465000Y-99640000D03*
X216735000Y-99640000D03*
X218005000Y-99640000D03*
X219275000Y-99640000D03*
X220545000Y-99640000D03*
X221815000Y-99640000D03*
X223085000Y-99640000D03*
D19*
X224850000Y-98390000D03*
X224850000Y-97120000D03*
X224850000Y-95850000D03*
X224850000Y-94580000D03*
X224850000Y-93310000D03*
X224850000Y-92040000D03*
X224850000Y-90770000D03*
X224850000Y-89500000D03*
X224850000Y-88230000D03*
X224850000Y-86960000D03*
X224850000Y-85690000D03*
X224850000Y-84420000D03*
X224850000Y-83150000D03*
X224850000Y-81880000D03*
D21*
X213200000Y-88900000D03*
X213200000Y-90300000D03*
X213900000Y-88200000D03*
X213900000Y-89600000D03*
X213900000Y-91000000D03*
X214600000Y-88900000D03*
D22*
X214600000Y-89600000D03*
D21*
X214600000Y-90300000D03*
X215300000Y-88200000D03*
X215300000Y-89600000D03*
X215300000Y-91000000D03*
X216000000Y-88900000D03*
X216000000Y-90300000D03*
%TD*%
D23*
%TO.C,D2*%
X214000000Y-106250000D03*
X214000000Y-104200000D03*
%TD*%
D24*
%TO.C,C3*%
X205500000Y-107040000D03*
X205500000Y-108000000D03*
%TD*%
D25*
%TO.C,C2*%
X202820000Y-116120000D03*
X202820000Y-118020000D03*
%TD*%
D26*
%TO.C,U1*%
X195520000Y-114065000D03*
D27*
X197820000Y-120365000D03*
D26*
X197820000Y-114065000D03*
X200120000Y-114065000D03*
%TD*%
D13*
%TO.C,R10*%
X201750000Y-83305003D03*
X201750000Y-83945003D03*
%TD*%
D28*
%TO.C,U4*%
X196150001Y-87244999D03*
X196150001Y-86594998D03*
X196150001Y-85944999D03*
X196150001Y-85294998D03*
X201849999Y-85294998D03*
X201849999Y-85944999D03*
X201849999Y-86594998D03*
X201849999Y-87244999D03*
%TD*%
D16*
%TO.C,C5*%
X204750000Y-82020000D03*
X204750000Y-82980000D03*
%TD*%
D10*
%TO.C,R8*%
X198370000Y-81470003D03*
X197730000Y-81470003D03*
%TD*%
D29*
%TO.C,D1*%
X202820000Y-114307500D03*
X202820000Y-112732500D03*
%TD*%
D18*
%TO.C,R6*%
X214207500Y-112550000D03*
X213187500Y-112550000D03*
%TD*%
D30*
%TO.C,R3*%
X223750000Y-108510000D03*
X223750000Y-107490000D03*
%TD*%
D31*
%TO.C,J1*%
X195975000Y-106950000D03*
X201425000Y-106950000D03*
X195975000Y-98050000D03*
X201425000Y-98050000D03*
D32*
X201525000Y-104100000D03*
X201525000Y-103300000D03*
X201525000Y-102500000D03*
X201525000Y-101700000D03*
X201525000Y-100900000D03*
D33*
X198825000Y-104700000D03*
X198825000Y-100300000D03*
%TD*%
D10*
%TO.C,C6*%
X197810000Y-84175000D03*
X198450000Y-84175000D03*
%TD*%
D34*
%TO.C,U3*%
X215000000Y-111200000D03*
X215000000Y-110400000D03*
X215000000Y-109600000D03*
X215000000Y-108800000D03*
X212625000Y-108800000D03*
X212625000Y-109600000D03*
X212625000Y-110400000D03*
X212625000Y-111200000D03*
%TD*%
D35*
%TO.C,R4*%
X212335000Y-101250000D03*
X212975000Y-101250000D03*
%TD*%
D36*
%TO.C,R7*%
X216687500Y-109800000D03*
X216687500Y-108780000D03*
%TD*%
D30*
%TO.C,R2*%
X204500000Y-108050000D03*
X204500000Y-107030000D03*
%TD*%
D12*
%TO.C,SW2*%
X220000000Y-105250000D03*
D11*
X221700000Y-105250000D03*
X218300000Y-105250000D03*
%TD*%
D10*
%TO.C,R5*%
X214915000Y-101250000D03*
X214275000Y-101250000D03*
%TD*%
M02*
