%TF.GenerationSoftware,KiCad,Pcbnew,9.0.2*%
%TF.CreationDate,2026-01-13T23:33:40-05:00*%
%TF.ProjectId,ESPmoduleBoard,4553506d-6f64-4756-9c65-426f6172642e,rev?*%
%TF.SameCoordinates,Original*%
%TF.FileFunction,Copper,L1,Top*%
%TF.FilePolarity,Positive*%
%FSLAX46Y46*%
G04 Gerber Fmt 4.6, Leading zero omitted, Abs format (unit mm)*
G04 Created by KiCad (PCBNEW 9.0.2) date 2026-01-13 23:33:40*
%MOMM*%
%LPD*%
G01*
G04 APERTURE LIST*
G04 Aperture macros list*
%AMRoundRect*
0 Rectangle with rounded corners*
0 $1 Rounding radius*
0 $2 $3 $4 $5 $6 $7 $8 $9 X,Y pos of 4 corners*
0 Add a 4 corners polygon primitive as box body*
4,1,4,$2,$3,$4,$5,$6,$7,$8,$9,$2,$3,0*
0 Add four circle primitives for the rounded corners*
1,1,$1+$1,$2,$3*
1,1,$1+$1,$4,$5*
1,1,$1+$1,$6,$7*
1,1,$1+$1,$8,$9*
0 Add four rect primitives between the rounded corners*
20,1,$1+$1,$2,$3,$4,$5,0*
20,1,$1+$1,$4,$5,$6,$7,0*
20,1,$1+$1,$6,$7,$8,$9,0*
20,1,$1+$1,$8,$9,$2,$3,0*%
G04 Aperture macros list end*
%TA.AperFunction,SMDPad,CuDef*%
%ADD10RoundRect,0.100000X-0.130000X-0.100000X0.130000X-0.100000X0.130000X0.100000X-0.130000X0.100000X0*%
%TD*%
%TA.AperFunction,SMDPad,CuDef*%
%ADD11R,0.900000X1.700000*%
%TD*%
%TA.AperFunction,SMDPad,CuDef*%
%ADD12RoundRect,0.100000X0.100000X-0.130000X0.100000X0.130000X-0.100000X0.130000X-0.100000X-0.130000X0*%
%TD*%
%TA.AperFunction,ComponentPad*%
%ADD13O,2.000000X1.700000*%
%TD*%
%TA.AperFunction,ComponentPad*%
%ADD14RoundRect,0.250000X0.750000X-0.600000X0.750000X0.600000X-0.750000X0.600000X-0.750000X-0.600000X0*%
%TD*%
%TA.AperFunction,SMDPad,CuDef*%
%ADD15RoundRect,0.140000X0.170000X-0.140000X0.170000X0.140000X-0.170000X0.140000X-0.170000X-0.140000X0*%
%TD*%
%TA.AperFunction,SMDPad,CuDef*%
%ADD16RoundRect,0.250000X-0.250000X-0.475000X0.250000X-0.475000X0.250000X0.475000X-0.250000X0.475000X0*%
%TD*%
%TA.AperFunction,SMDPad,CuDef*%
%ADD17RoundRect,0.135000X0.135000X0.185000X-0.135000X0.185000X-0.135000X-0.185000X0.135000X-0.185000X0*%
%TD*%
%TA.AperFunction,SMDPad,CuDef*%
%ADD18R,1.500000X0.900000*%
%TD*%
%TA.AperFunction,SMDPad,CuDef*%
%ADD19R,0.900000X1.500000*%
%TD*%
%TA.AperFunction,HeatsinkPad*%
%ADD20C,0.600000*%
%TD*%
%TA.AperFunction,HeatsinkPad*%
%ADD21R,3.900000X3.900000*%
%TD*%
%TA.AperFunction,SMDPad,CuDef*%
%ADD22RoundRect,0.250000X0.450000X-0.325000X0.450000X0.325000X-0.450000X0.325000X-0.450000X-0.325000X0*%
%TD*%
%TA.AperFunction,SMDPad,CuDef*%
%ADD23RoundRect,0.140000X-0.170000X0.140000X-0.170000X-0.140000X0.170000X-0.140000X0.170000X0.140000X0*%
%TD*%
%TA.AperFunction,SMDPad,CuDef*%
%ADD24RoundRect,0.250000X0.475000X-0.250000X0.475000X0.250000X-0.475000X0.250000X-0.475000X-0.250000X0*%
%TD*%
%TA.AperFunction,SMDPad,CuDef*%
%ADD25RoundRect,0.375000X-0.375000X0.625000X-0.375000X-0.625000X0.375000X-0.625000X0.375000X0.625000X0*%
%TD*%
%TA.AperFunction,SMDPad,CuDef*%
%ADD26RoundRect,0.500000X-1.400000X0.500000X-1.400000X-0.500000X1.400000X-0.500000X1.400000X0.500000X0*%
%TD*%
%TA.AperFunction,SMDPad,CuDef*%
%ADD27O,1.200000X0.399999*%
%TD*%
%TA.AperFunction,SMDPad,CuDef*%
%ADD28RoundRect,0.218750X-0.256250X0.218750X-0.256250X-0.218750X0.256250X-0.218750X0.256250X0.218750X0*%
%TD*%
%TA.AperFunction,SMDPad,CuDef*%
%ADD29RoundRect,0.135000X0.185000X-0.135000X0.185000X0.135000X-0.185000X0.135000X-0.185000X-0.135000X0*%
%TD*%
%TA.AperFunction,SMDPad,CuDef*%
%ADD30R,1.700000X2.000000*%
%TD*%
%TA.AperFunction,SMDPad,CuDef*%
%ADD31R,2.000000X0.500000*%
%TD*%
%TA.AperFunction,SMDPad,CuDef*%
%ADD32RoundRect,0.125000X0.137500X-0.125000X0.137500X0.125000X-0.137500X0.125000X-0.137500X-0.125000X0*%
%TD*%
%TA.AperFunction,SMDPad,CuDef*%
%ADD33RoundRect,0.100000X0.130000X0.100000X-0.130000X0.100000X-0.130000X-0.100000X0.130000X-0.100000X0*%
%TD*%
%TA.AperFunction,SMDPad,CuDef*%
%ADD34RoundRect,0.135000X-0.185000X0.135000X-0.185000X-0.135000X0.185000X-0.135000X0.185000X0.135000X0*%
%TD*%
%TA.AperFunction,ViaPad*%
%ADD35C,0.600000*%
%TD*%
%TA.AperFunction,Conductor*%
%ADD36C,0.500000*%
%TD*%
%TA.AperFunction,Conductor*%
%ADD37C,0.300000*%
%TD*%
%TA.AperFunction,Conductor*%
%ADD38C,0.200000*%
%TD*%
G04 APERTURE END LIST*
D10*
%TO.P,R9,2*%
%TO.N,GND*%
X199825000Y-81480000D03*
%TO.P,R9,1*%
%TO.N,Net-(U4-VSNS)*%
X199185000Y-81480000D03*
%TD*%
D11*
%TO.P,SW1,2,2*%
%TO.N,Net-(U2-EN)*%
X206850000Y-105250000D03*
%TO.P,SW1,1,1*%
%TO.N,GND*%
X210250000Y-105250000D03*
%TD*%
D12*
%TO.P,C7,2*%
%TO.N,GND*%
X194750000Y-85180000D03*
%TO.P,C7,1*%
%TO.N,/V_USB+*%
X194750000Y-85820000D03*
%TD*%
D13*
%TO.P,J2,2,Pin_2*%
%TO.N,GND*%
X199750000Y-91000000D03*
D14*
%TO.P,J2,1,Pin_1*%
%TO.N,/V_Batt+*%
X199750000Y-93500000D03*
%TD*%
D15*
%TO.P,C4,2*%
%TO.N,GND*%
X205750000Y-82040000D03*
%TO.P,C4,1*%
%TO.N,+3V3*%
X205750000Y-83000000D03*
%TD*%
D16*
%TO.P,C1,2*%
%TO.N,GND*%
X197320000Y-111520000D03*
%TO.P,C1,1*%
%TO.N,VBUS*%
X195420000Y-111520000D03*
%TD*%
D17*
%TO.P,R1,2*%
%TO.N,GND*%
X200800000Y-111020000D03*
%TO.P,R1,1*%
%TO.N,/PWR_LED*%
X201820000Y-111020000D03*
%TD*%
D12*
%TO.P,C8,1*%
%TO.N,VBUS*%
X194750000Y-83995000D03*
%TO.P,C8,2*%
%TO.N,GND*%
X194750000Y-83355000D03*
%TD*%
D18*
%TO.P,U2,1,GND*%
%TO.N,GND*%
X207350000Y-81880000D03*
%TO.P,U2,2,3V3*%
%TO.N,+3V3*%
X207350000Y-83150000D03*
%TO.P,U2,3,EN*%
%TO.N,Net-(U2-EN)*%
X207350000Y-84420000D03*
%TO.P,U2,4,IO4*%
%TO.N,unconnected-(U2-IO4-Pad4)*%
X207350000Y-85690000D03*
%TO.P,U2,5,IO5*%
%TO.N,unconnected-(U2-IO5-Pad5)*%
X207350000Y-86960000D03*
%TO.P,U2,6,IO6*%
%TO.N,unconnected-(U2-IO6-Pad6)*%
X207350000Y-88230000D03*
%TO.P,U2,7,IO7*%
%TO.N,unconnected-(U2-IO7-Pad7)*%
X207350000Y-89500000D03*
%TO.P,U2,8,IO15*%
%TO.N,unconnected-(U2-IO15-Pad8)*%
X207350000Y-90770000D03*
%TO.P,U2,9,IO16*%
%TO.N,unconnected-(U2-IO16-Pad9)*%
X207350000Y-92040000D03*
%TO.P,U2,10,IO17*%
%TO.N,unconnected-(U2-IO17-Pad10)*%
X207350000Y-93310000D03*
%TO.P,U2,11,IO18*%
%TO.N,unconnected-(U2-IO18-Pad11)*%
X207350000Y-94580000D03*
%TO.P,U2,12,IO8*%
%TO.N,unconnected-(U2-IO8-Pad12)*%
X207350000Y-95850000D03*
%TO.P,U2,13,USB_D-*%
%TO.N,/USB_D-*%
X207350000Y-97120000D03*
%TO.P,U2,14,USB_D+*%
%TO.N,/USB_D+*%
X207350000Y-98390000D03*
D19*
%TO.P,U2,15,IO3*%
%TO.N,unconnected-(U2-IO3-Pad15)*%
X209115000Y-99640000D03*
%TO.P,U2,16,IO46*%
%TO.N,unconnected-(U2-IO46-Pad16)*%
X210385000Y-99640000D03*
%TO.P,U2,17,IO9*%
%TO.N,unconnected-(U2-IO9-Pad17)*%
X211655000Y-99640000D03*
%TO.P,U2,18,IO10*%
%TO.N,/BME_SDI*%
X212925000Y-99640000D03*
%TO.P,U2,19,IO11*%
%TO.N,/BME_SCK*%
X214195000Y-99640000D03*
%TO.P,U2,20,IO12*%
%TO.N,Net-(D2-A)*%
X215465000Y-99640000D03*
%TO.P,U2,21,IO13*%
%TO.N,unconnected-(U2-IO13-Pad21)*%
X216735000Y-99640000D03*
%TO.P,U2,22,IO14*%
%TO.N,unconnected-(U2-IO14-Pad22)*%
X218005000Y-99640000D03*
%TO.P,U2,23,IO21*%
%TO.N,unconnected-(U2-IO21-Pad23)*%
X219275000Y-99640000D03*
%TO.P,U2,24,IO47*%
%TO.N,unconnected-(U2-IO47-Pad24)*%
X220545000Y-99640000D03*
%TO.P,U2,25,IO48*%
%TO.N,unconnected-(U2-IO48-Pad25)*%
X221815000Y-99640000D03*
%TO.P,U2,26,IO45*%
%TO.N,unconnected-(U2-IO45-Pad26)*%
X223085000Y-99640000D03*
D18*
%TO.P,U2,27,IO0*%
%TO.N,Net-(U2-IO0)*%
X224850000Y-98390000D03*
%TO.P,U2,28,IO35*%
%TO.N,unconnected-(U2-IO35-Pad28)*%
X224850000Y-97120000D03*
%TO.P,U2,29,IO36*%
%TO.N,unconnected-(U2-IO36-Pad29)*%
X224850000Y-95850000D03*
%TO.P,U2,30,IO37*%
%TO.N,unconnected-(U2-IO37-Pad30)*%
X224850000Y-94580000D03*
%TO.P,U2,31,IO38*%
%TO.N,unconnected-(U2-IO38-Pad31)*%
X224850000Y-93310000D03*
%TO.P,U2,32,IO39*%
%TO.N,unconnected-(U2-IO39-Pad32)*%
X224850000Y-92040000D03*
%TO.P,U2,33,IO40*%
%TO.N,unconnected-(U2-IO40-Pad33)*%
X224850000Y-90770000D03*
%TO.P,U2,34,IO41*%
%TO.N,unconnected-(U2-IO41-Pad34)*%
X224850000Y-89500000D03*
%TO.P,U2,35,IO42*%
%TO.N,unconnected-(U2-IO42-Pad35)*%
X224850000Y-88230000D03*
%TO.P,U2,36,RXD0*%
%TO.N,unconnected-(U2-RXD0-Pad36)*%
X224850000Y-86960000D03*
%TO.P,U2,37,TXD0*%
%TO.N,unconnected-(U2-TXD0-Pad37)*%
X224850000Y-85690000D03*
%TO.P,U2,38,IO2*%
%TO.N,unconnected-(U2-IO2-Pad38)*%
X224850000Y-84420000D03*
%TO.P,U2,39,IO1*%
%TO.N,unconnected-(U2-IO1-Pad39)*%
X224850000Y-83150000D03*
%TO.P,U2,40,GND*%
%TO.N,GND*%
X224850000Y-81880000D03*
D20*
%TO.P,U2,41,GND*%
X213200000Y-88900000D03*
X213200000Y-90300000D03*
X213900000Y-88200000D03*
X213900000Y-89600000D03*
X213900000Y-91000000D03*
X214600000Y-88900000D03*
D21*
X214600000Y-89600000D03*
D20*
X214600000Y-90300000D03*
X215300000Y-88200000D03*
X215300000Y-89600000D03*
X215300000Y-91000000D03*
X216000000Y-88900000D03*
X216000000Y-90300000D03*
%TD*%
D22*
%TO.P,D2,1,K*%
%TO.N,GND*%
X214000000Y-106250000D03*
%TO.P,D2,2,A*%
%TO.N,Net-(D2-A)*%
X214000000Y-104200000D03*
%TD*%
D23*
%TO.P,C3,1*%
%TO.N,Net-(U2-EN)*%
X205500000Y-107040000D03*
%TO.P,C3,2*%
%TO.N,GND*%
X205500000Y-108000000D03*
%TD*%
D24*
%TO.P,C2,2*%
%TO.N,GND*%
X202820000Y-116120000D03*
%TO.P,C2,1*%
%TO.N,+3V3*%
X202820000Y-118020000D03*
%TD*%
D25*
%TO.P,U1,3,VI*%
%TO.N,VBUS*%
X195520000Y-114065000D03*
D26*
%TO.P,U1,2,VO*%
%TO.N,+3V3*%
X197820000Y-120365000D03*
D25*
X197820000Y-114065000D03*
%TO.P,U1,1,GND*%
%TO.N,GND*%
X200120000Y-114065000D03*
%TD*%
D12*
%TO.P,R10,2*%
%TO.N,GND*%
X201750000Y-83305003D03*
%TO.P,R10,1*%
%TO.N,Net-(U4-ILIM)*%
X201750000Y-83945003D03*
%TD*%
D27*
%TO.P,U4,8,IN1*%
%TO.N,/V_Batt+*%
X196150001Y-87244999D03*
%TO.P,U4,7,OUT*%
%TO.N,VBUS*%
X196150001Y-86594998D03*
%TO.P,U4,6,IN2*%
%TO.N,/V_USB+*%
X196150001Y-85944999D03*
%TO.P,U4,5,GND*%
%TO.N,GND*%
X196150001Y-85294998D03*
%TO.P,U4,4,ILIM*%
%TO.N,Net-(U4-ILIM)*%
X201849999Y-85294998D03*
%TO.P,U4,3,VSNS*%
%TO.N,Net-(U4-VSNS)*%
X201849999Y-85944999D03*
%TO.P,U4,2,EN_N*%
%TO.N,GND*%
X201849999Y-86594998D03*
%TO.P,U4,1,STAT*%
%TO.N,unconnected-(U4-STAT-Pad1)*%
X201849999Y-87244999D03*
%TD*%
D15*
%TO.P,C5,2*%
%TO.N,GND*%
X204750000Y-82020000D03*
%TO.P,C5,1*%
%TO.N,+3V3*%
X204750000Y-82980000D03*
%TD*%
D10*
%TO.P,R8,2*%
%TO.N,Net-(U4-VSNS)*%
X198370000Y-81470003D03*
%TO.P,R8,1*%
%TO.N,/V_Batt+*%
X197730000Y-81470003D03*
%TD*%
D28*
%TO.P,D1,2,A*%
%TO.N,+3V3*%
X202820000Y-114307500D03*
%TO.P,D1,1,K*%
%TO.N,/PWR_LED*%
X202820000Y-112732500D03*
%TD*%
D17*
%TO.P,R6,1*%
%TO.N,+3V3*%
X214207500Y-112550000D03*
%TO.P,R6,2*%
%TO.N,/CS_3V*%
X213187500Y-112550000D03*
%TD*%
D29*
%TO.P,R3,1*%
%TO.N,+3V3*%
X223750000Y-108510000D03*
%TO.P,R3,2*%
%TO.N,Net-(U2-IO0)*%
X223750000Y-107490000D03*
%TD*%
D30*
%TO.P,J1,6,Shield*%
%TO.N,GND*%
X195975000Y-106950000D03*
X201425000Y-106950000D03*
X195975000Y-98050000D03*
X201425000Y-98050000D03*
D31*
%TO.P,J1,5,GND*%
X201525000Y-104100000D03*
%TO.P,J1,4,ID*%
%TO.N,unconnected-(J1-ID-Pad4)*%
X201525000Y-103300000D03*
%TO.P,J1,3,D+*%
%TO.N,/USB_D+*%
X201525000Y-102500000D03*
%TO.P,J1,2,D-*%
%TO.N,/USB_D-*%
X201525000Y-101700000D03*
%TO.P,J1,1,VBUS*%
%TO.N,/V_USB+*%
X201525000Y-100900000D03*
%TD*%
D10*
%TO.P,C6,1*%
%TO.N,/V_Batt+*%
X197810000Y-84175000D03*
%TO.P,C6,2*%
%TO.N,GND*%
X198450000Y-84175000D03*
%TD*%
D32*
%TO.P,U3,8,VDD*%
%TO.N,+3V3*%
X215000000Y-111200000D03*
%TO.P,U3,7,GND*%
%TO.N,GND*%
X215000000Y-110400000D03*
%TO.P,U3,6,VDDIO*%
%TO.N,+3V3*%
X215000000Y-109600000D03*
%TO.P,U3,5,SDO*%
%TO.N,/SDO{slash}ADR_3V*%
X215000000Y-108800000D03*
%TO.P,U3,4,SCK*%
%TO.N,/BME_SCK*%
X212625000Y-108800000D03*
%TO.P,U3,3,SDI*%
%TO.N,/BME_SDI*%
X212625000Y-109600000D03*
%TO.P,U3,2,CSB*%
%TO.N,/CS_3V*%
X212625000Y-110400000D03*
%TO.P,U3,1,GND*%
%TO.N,GND*%
X212625000Y-111200000D03*
%TD*%
D33*
%TO.P,R4,2*%
%TO.N,+3V3*%
X212335000Y-101250000D03*
%TO.P,R4,1*%
%TO.N,/BME_SDI*%
X212975000Y-101250000D03*
%TD*%
D34*
%TO.P,R7,2*%
%TO.N,GND*%
X216687500Y-109800000D03*
%TO.P,R7,1*%
%TO.N,/SDO{slash}ADR_3V*%
X216687500Y-108780000D03*
%TD*%
D29*
%TO.P,R2,1*%
%TO.N,+3V3*%
X204500000Y-108050000D03*
%TO.P,R2,2*%
%TO.N,Net-(U2-EN)*%
X204500000Y-107030000D03*
%TD*%
D11*
%TO.P,SW2,1,1*%
%TO.N,Net-(U2-IO0)*%
X221700000Y-105250000D03*
%TO.P,SW2,2,2*%
%TO.N,GND*%
X218300000Y-105250000D03*
%TD*%
D10*
%TO.P,R5,2*%
%TO.N,+3V3*%
X214915000Y-101250000D03*
%TO.P,R5,1*%
%TO.N,/BME_SCK*%
X214275000Y-101250000D03*
%TD*%
D35*
%TO.N,+3V3*%
X210425000Y-101425000D03*
X205950000Y-101850000D03*
X204750000Y-95450000D03*
%TO.N,GND*%
X201250000Y-82150000D03*
X195700000Y-83000000D03*
X215700000Y-111900000D03*
X210150000Y-109650000D03*
X199700000Y-109300000D03*
%TO.N,VBUS*%
X195000000Y-89600000D03*
X194000000Y-97600000D03*
%TD*%
D36*
%TO.N,GND*%
X199750000Y-87994997D02*
X199750000Y-87850000D01*
X199750000Y-87850000D02*
X198450000Y-86550000D01*
X198450000Y-86550000D02*
X198450000Y-84175000D01*
D37*
%TO.N,VBUS*%
X196150001Y-86594998D02*
X196648296Y-86594998D01*
X197028001Y-86215293D02*
X197028001Y-84628001D01*
X196648296Y-86594998D02*
X197028001Y-86215293D01*
X196395000Y-83995000D02*
X194750000Y-83995000D01*
X197028001Y-84628001D02*
X196395000Y-83995000D01*
D36*
%TO.N,GND*%
X214600000Y-89600000D02*
X222320000Y-81880000D01*
X222320000Y-81880000D02*
X224850000Y-81880000D01*
D37*
%TO.N,+3V3*%
X217075000Y-110675892D02*
X216111784Y-110675892D01*
X215867416Y-112550000D02*
X214700000Y-112550000D01*
X217075000Y-110675892D02*
X217075000Y-111342416D01*
X217075000Y-111342416D02*
X215867416Y-112550000D01*
X223750000Y-108510000D02*
X221584108Y-110675892D01*
X221584108Y-110675892D02*
X217075000Y-110675892D01*
X216111784Y-110675892D02*
X215035892Y-109600000D01*
X215035892Y-109600000D02*
X215000000Y-109600000D01*
D36*
X204500000Y-108050000D02*
X204500000Y-108675000D01*
X203575000Y-103325000D02*
X203575000Y-108100000D01*
X205950000Y-101850000D02*
X205050000Y-101850000D01*
X205050000Y-101850000D02*
X203575000Y-103325000D01*
X203575000Y-108100000D02*
X204150000Y-108675000D01*
X204150000Y-108675000D02*
X204500000Y-108675000D01*
X210425000Y-101425000D02*
X212160000Y-101425000D01*
X212160000Y-101425000D02*
X212335000Y-101250000D01*
X204750000Y-82980000D02*
X204750000Y-95450000D01*
D37*
%TO.N,GND*%
X201750000Y-83305003D02*
X202194997Y-83305003D01*
X202194997Y-83305003D02*
X203480000Y-82020000D01*
X203480000Y-82020000D02*
X204750000Y-82020000D01*
X201250000Y-82150000D02*
X200580000Y-81480000D01*
X201750000Y-83305003D02*
X201750000Y-82650000D01*
X201750000Y-82650000D02*
X201250000Y-82150000D01*
X200580000Y-81480000D02*
X199825000Y-81480000D01*
X195345000Y-83355000D02*
X195700000Y-83000000D01*
X194750000Y-83355000D02*
X195345000Y-83355000D01*
X194750000Y-83355000D02*
X194622656Y-83355000D01*
X194622656Y-83355000D02*
X194272000Y-83705656D01*
X194272000Y-83705656D02*
X194272000Y-84702000D01*
X194272000Y-84702000D02*
X194750000Y-85180000D01*
X196150001Y-85294998D02*
X194864998Y-85294998D01*
X194864998Y-85294998D02*
X194750000Y-85180000D01*
D36*
X201849999Y-86594998D02*
X201149999Y-86594998D01*
X201149999Y-86594998D02*
X199750000Y-87994997D01*
X199750000Y-87994997D02*
X199750000Y-91000000D01*
D37*
%TO.N,+3V3*%
X208737500Y-118020000D02*
X205100000Y-118020000D01*
X205100000Y-118020000D02*
X205700000Y-117420000D01*
X205700000Y-117420000D02*
X205700000Y-114900000D01*
X205700000Y-114900000D02*
X204550000Y-113750000D01*
X204550000Y-113750000D02*
X204500000Y-113750000D01*
X214207500Y-112550000D02*
X208737500Y-118020000D01*
X205100000Y-118020000D02*
X202820000Y-118020000D01*
%TO.N,GND*%
X215700000Y-111900000D02*
X215700000Y-111000000D01*
D36*
X210150000Y-109650000D02*
X211700000Y-111200000D01*
X208500000Y-108000000D02*
X205500000Y-108000000D01*
X208500000Y-108000000D02*
X210150000Y-109650000D01*
X211700000Y-111200000D02*
X212625000Y-111200000D01*
D37*
X215100000Y-110400000D02*
X215000000Y-110400000D01*
X215700000Y-111000000D02*
X215100000Y-110400000D01*
X216687500Y-109800000D02*
X218300000Y-108187500D01*
X218300000Y-108187500D02*
X218300000Y-105250000D01*
X214000000Y-106250000D02*
X214000000Y-109662499D01*
X214000000Y-109662499D02*
X214737501Y-110400000D01*
X214737501Y-110400000D02*
X215000000Y-110400000D01*
D36*
X210250000Y-106950000D02*
X209200000Y-108000000D01*
X210250000Y-105250000D02*
X210250000Y-106950000D01*
X209200000Y-108000000D02*
X208500000Y-108000000D01*
X199700000Y-109300000D02*
X199700000Y-110500000D01*
X199700000Y-110500000D02*
X200220000Y-111020000D01*
X200220000Y-111020000D02*
X200800000Y-111020000D01*
X197320000Y-107300000D02*
X197700000Y-107300000D01*
X197700000Y-107300000D02*
X199700000Y-109300000D01*
X201425000Y-107575000D02*
X199700000Y-109300000D01*
X201425000Y-106950000D02*
X201425000Y-107575000D01*
%TO.N,VBUS*%
X195000000Y-89600000D02*
X195000000Y-86800000D01*
X195000000Y-86800000D02*
X195205002Y-86594998D01*
X195205002Y-86594998D02*
X196150001Y-86594998D01*
X194000000Y-110100000D02*
X194000000Y-97600000D01*
X195420000Y-111520000D02*
X194000000Y-110100000D01*
%TO.N,/V_Batt+*%
X197730000Y-86259998D02*
X196744999Y-87244999D01*
X196744999Y-87244999D02*
X196150001Y-87244999D01*
%TO.N,/V_USB+*%
X201525000Y-100900000D02*
X193750000Y-93125000D01*
X193750000Y-93125000D02*
X193750000Y-86500000D01*
X193750000Y-86500000D02*
X194430000Y-85820000D01*
X194430000Y-85820000D02*
X194750000Y-85820000D01*
D37*
%TO.N,/BME_SDI*%
X212975000Y-101250000D02*
X212975000Y-101525000D01*
X212975000Y-101525000D02*
X211322000Y-103178000D01*
X211322000Y-108677284D02*
X212244716Y-109600000D01*
X211322000Y-103178000D02*
X211322000Y-108677284D01*
X212244716Y-109600000D02*
X212625000Y-109600000D01*
%TO.N,/BME_SCK*%
X214275000Y-101250000D02*
X211750000Y-103775000D01*
X211750000Y-103775000D02*
X211750000Y-108500000D01*
X211750000Y-108500000D02*
X212050000Y-108800000D01*
X212050000Y-108800000D02*
X212625000Y-108800000D01*
%TO.N,Net-(U2-EN)*%
X206850000Y-105250000D02*
X208378000Y-103722000D01*
X208378000Y-103722000D02*
X208378000Y-84962000D01*
X207836000Y-84420000D02*
X207350000Y-84420000D01*
X208378000Y-84962000D02*
X207836000Y-84420000D01*
%TO.N,Net-(U2-IO0)*%
X223750000Y-107490000D02*
X222240000Y-107490000D01*
X222240000Y-107490000D02*
X221700000Y-106950000D01*
X221700000Y-106950000D02*
X221700000Y-105250000D01*
X221700000Y-105250000D02*
X224000000Y-105250000D01*
X224000000Y-105250000D02*
X224850000Y-104400000D01*
X224850000Y-104400000D02*
X224850000Y-98390000D01*
%TO.N,/SDO{slash}ADR_3V*%
X216687500Y-108780000D02*
X215020000Y-108780000D01*
X215020000Y-108780000D02*
X215000000Y-108800000D01*
%TO.N,+3V3*%
X214700000Y-112550000D02*
X215000000Y-112250000D01*
X214207500Y-112550000D02*
X214700000Y-112550000D01*
X215000000Y-112250000D02*
X215000000Y-111200000D01*
%TO.N,/CS_3V*%
X213187500Y-112550000D02*
X213187500Y-110700001D01*
X213187500Y-110700001D02*
X212887499Y-110400000D01*
X212887499Y-110400000D02*
X212625000Y-110400000D01*
%TO.N,/PWR_LED*%
X202820000Y-112732500D02*
X202820000Y-112020000D01*
X202820000Y-112020000D02*
X201820000Y-111020000D01*
D36*
%TO.N,+3V3*%
X204500000Y-108675000D02*
X204500000Y-113750000D01*
X204500000Y-113750000D02*
X203942500Y-114307500D01*
X203942500Y-114307500D02*
X202820000Y-114307500D01*
D37*
%TO.N,Net-(U2-EN)*%
X204500000Y-107030000D02*
X205490000Y-107030000D01*
X205490000Y-107030000D02*
X205500000Y-107040000D01*
X206850000Y-105250000D02*
X206850000Y-106650000D01*
X206850000Y-106650000D02*
X206460000Y-107040000D01*
X206460000Y-107040000D02*
X205500000Y-107040000D01*
%TO.N,Net-(D2-A)*%
X215465000Y-99640000D02*
X215465000Y-102735000D01*
X215465000Y-102735000D02*
X214000000Y-104200000D01*
%TO.N,/BME_SCK*%
X214275000Y-101250000D02*
X214275000Y-99720000D01*
X214275000Y-99720000D02*
X214195000Y-99640000D01*
%TO.N,/BME_SDI*%
X212975000Y-101250000D02*
X212975000Y-99690000D01*
X212975000Y-99690000D02*
X212925000Y-99640000D01*
%TO.N,Net-(U4-ILIM)*%
X201849999Y-85294998D02*
X201849999Y-84045002D01*
X201849999Y-84045002D02*
X201750000Y-83945003D01*
%TO.N,Net-(U4-VSNS)*%
X199185000Y-81480000D02*
X199185000Y-83780000D01*
X199185000Y-83780000D02*
X201349999Y-85944999D01*
X201349999Y-85944999D02*
X201849999Y-85944999D01*
X198370000Y-81470003D02*
X199175003Y-81470003D01*
X199175003Y-81470003D02*
X199185000Y-81480000D01*
D36*
%TO.N,/V_Batt+*%
X197730000Y-86259998D02*
X197730000Y-81470003D01*
%TO.N,GND*%
X197320000Y-111520000D02*
X197320000Y-107300000D01*
X197320000Y-107300000D02*
X196970000Y-106950000D01*
X196970000Y-106950000D02*
X195975000Y-106950000D01*
%TO.N,VBUS*%
X195420000Y-111520000D02*
X195420000Y-113965000D01*
X195420000Y-113965000D02*
X195520000Y-114065000D01*
%TO.N,/V_USB+*%
X194750000Y-85820000D02*
X194874999Y-85944999D01*
X194874999Y-85944999D02*
X196150001Y-85944999D01*
%TO.N,+3V3*%
X205750000Y-83000000D02*
X204770000Y-83000000D01*
X204770000Y-83000000D02*
X204750000Y-82980000D01*
%TO.N,GND*%
X205750000Y-82040000D02*
X204770000Y-82040000D01*
X204770000Y-82040000D02*
X204750000Y-82020000D01*
X207350000Y-81880000D02*
X205910000Y-81880000D01*
X205910000Y-81880000D02*
X205750000Y-82040000D01*
%TO.N,+3V3*%
X207350000Y-83150000D02*
X205900000Y-83150000D01*
X205900000Y-83150000D02*
X205750000Y-83000000D01*
%TO.N,/V_Batt+*%
X199750000Y-93500000D02*
X196150001Y-89900001D01*
X196150001Y-89900001D02*
X196150001Y-87244999D01*
D38*
%TO.N,/USB_D+*%
X205814999Y-97980000D02*
X206224999Y-98390000D01*
X202275000Y-102500000D02*
X202450000Y-102325000D01*
%TO.N,/USB_D-*%
X205401802Y-97530000D02*
X205814999Y-97530000D01*
X205814999Y-97530000D02*
X206224999Y-97120000D01*
%TO.N,/USB_D+*%
X202450000Y-102325000D02*
X203493198Y-102325000D01*
X201525000Y-102500000D02*
X202275000Y-102500000D01*
%TO.N,/USB_D-*%
X201525000Y-101700000D02*
X202275000Y-101700000D01*
%TO.N,/USB_D+*%
X206224999Y-98390000D02*
X207350000Y-98390000D01*
X203493198Y-102325000D02*
X204225000Y-101593198D01*
X205588198Y-97980000D02*
X205814999Y-97980000D01*
X204225000Y-101593198D02*
X204225000Y-99343198D01*
X204225000Y-99343198D02*
X205588198Y-97980000D01*
%TO.N,/USB_D-*%
X202275000Y-101700000D02*
X202450000Y-101875000D01*
X203306802Y-101875000D02*
X203775000Y-101406802D01*
X202450000Y-101875000D02*
X203306802Y-101875000D01*
X203775000Y-101406802D02*
X203775000Y-99156802D01*
X203775000Y-99156802D02*
X205401802Y-97530000D01*
X206224999Y-97120000D02*
X207350000Y-97120000D01*
D36*
%TO.N,GND*%
X216050000Y-106250000D02*
X214000000Y-106250000D01*
X217050000Y-105250000D02*
X216050000Y-106250000D01*
X218300000Y-105250000D02*
X217050000Y-105250000D01*
%TD*%
%TA.AperFunction,Conductor*%
%TO.N,GND*%
G36*
X198072878Y-110488730D02*
G01*
X198130816Y-110508397D01*
X198166129Y-110558363D01*
X198170581Y-110587129D01*
X198179908Y-112144728D01*
X198180000Y-112160000D01*
X201383473Y-112804601D01*
X201436791Y-112834616D01*
X201462283Y-112890238D01*
X201462877Y-112898007D01*
X201549999Y-115259999D01*
X201550000Y-115260000D01*
X203782700Y-115298329D01*
X203840557Y-115318232D01*
X203875666Y-115368342D01*
X203880000Y-115397314D01*
X203880000Y-116701895D01*
X203861093Y-116760086D01*
X203811593Y-116796050D01*
X203781900Y-116800891D01*
X201710997Y-116819718D01*
X201654376Y-116802552D01*
X201650628Y-116800000D01*
X199154617Y-115100381D01*
X199117161Y-115052002D01*
X199111371Y-115016041D01*
X199170000Y-112710000D01*
X199169999Y-112709999D01*
X199170000Y-112709999D01*
X198009991Y-112599999D01*
X196709693Y-112590712D01*
X196651639Y-112571390D01*
X196616029Y-112521634D01*
X196611410Y-112490318D01*
X196638600Y-110568880D01*
X196658329Y-110510966D01*
X196708333Y-110475706D01*
X196738880Y-110471292D01*
X198072878Y-110488730D01*
G37*
%TD.AperFunction*%
%TD*%
%TA.AperFunction,Conductor*%
%TO.N,+3V3*%
G36*
X197979943Y-113105297D02*
G01*
X197988582Y-113105736D01*
X198025113Y-113109200D01*
X198560706Y-113159988D01*
X198616850Y-113184303D01*
X198647980Y-113236977D01*
X198650326Y-113261061D01*
X198606034Y-115003191D01*
X198606034Y-115003208D01*
X198612296Y-115096377D01*
X198612299Y-115096403D01*
X198618085Y-115132342D01*
X198618089Y-115132360D01*
X198646461Y-115236318D01*
X198717455Y-115361463D01*
X198745212Y-115397314D01*
X198754911Y-115409841D01*
X198763911Y-115421129D01*
X198870102Y-115518211D01*
X198946157Y-115569999D01*
X198983614Y-115618378D01*
X198989434Y-115651175D01*
X199000000Y-117250000D01*
X201408029Y-117250000D01*
X201449942Y-117259310D01*
X201507714Y-117286309D01*
X201564335Y-117303475D01*
X201572996Y-117306016D01*
X201573000Y-117306016D01*
X201573002Y-117306017D01*
X201644294Y-117315606D01*
X201715592Y-117325197D01*
X203786495Y-117306370D01*
X203863240Y-117299804D01*
X203885067Y-117296245D01*
X203945540Y-117305539D01*
X203989003Y-117348605D01*
X204000000Y-117393954D01*
X204000000Y-121400500D01*
X203981093Y-121458691D01*
X203931593Y-121494655D01*
X203901000Y-121499500D01*
X195849000Y-121499500D01*
X195790809Y-121480593D01*
X195754845Y-121431093D01*
X195750000Y-121400500D01*
X195750000Y-116099000D01*
X195768907Y-116040809D01*
X195818407Y-116004845D01*
X195849000Y-116000000D01*
X196749999Y-116000000D01*
X196750000Y-116000000D01*
X196750000Y-114891786D01*
X196752926Y-114867893D01*
X196759807Y-114840225D01*
X196767600Y-114808889D01*
X196770500Y-114766123D01*
X196770499Y-113363878D01*
X196767600Y-113321111D01*
X196752926Y-113262104D01*
X196750000Y-113238212D01*
X196750000Y-113196221D01*
X196768907Y-113138030D01*
X196818407Y-113102066D01*
X196849702Y-113097224D01*
X197979943Y-113105297D01*
G37*
%TD.AperFunction*%
%TD*%
M02*
